<svg xmlns="http://www.w3.org/2000/svg" viewBox="0 0 500.313395 371.247613" aria-hidden="true" focusable="false">
  <g transform="translate(-10.598032,381.662799) scale(0.100000,-0.100000)" fill="currentColor" stroke="currentColor" stroke-width="22" stroke-linecap="round" stroke-linejoin="round">
    <path d="M3325 3799 c-167 -89 -355 -259 -536 -484 -94 -117 -94 -117 -209 -175 -235 -119 -485 -283 -730 -478 -69 -56 -126 -100 -127 -99 0 1 9 34 23 72 46 136 22 217 -69 232 l-41 6 39 14 c175 63 335 78 435 43 64 -23 70 -23 70 -10 0 20 -79 61 -135 70 -147 24 -450 -70 -805 -250 -105 -54 -156 -73 -230 -89 -175 -36 -339 -112 -566 -263 -198 -131 -324 -267 -324 -350 0 -46 38 -63 107 -49 31 6 59 11 62 11 3 0 5 -20 3 -44 -8 -92 37 -121 183 -120 235 3 494 131 715 353 129 129 161 188 168 301 4 67 1 79 -21 111 -24 36 -24 36 58 83 164 94 286 130 302 90 10 -27 -15 -123 -59 -223 -40 -93 -47 -102 -194 -252 -335 -346 -534 -674 -560 -923 -7 -69 -7 -69 -254 -450 -277 -429 -386 -593 -473 -714 -55 -78 -58 -85 -43 -100 15 -15 20 -12 72 43 58 62 244 337 539 800 140 220 172 263 180 249 46 -81 129 -133 254 -160 79 -16 301 -18 420 -4 46 6 85 10 86 8 1 -2 -15 -57 -36 -123 -42 -128 -50 -167 -35 -175 5 -3 29 47 53 110 79 210 70 199 200 231 265 64 575 183 1013 389 96 45 198 93 226 106 l52 23 -83 -172 c-163 -340 -301 -667 -291 -693 4 -11 10 -14 16 -8 4 5 59 117 120 249 113 243 282 583 320 643 20 33 48 48 304 163 59 27 115 49 122 49 8 0 38 13 67 29 54 30 426 181 446 181 8 0 11 -40 11 -129 0 -111 2 -130 17 -135 9 -4 20 -1 24 5 9 15 36 158 44 236 7 62 7 62 58 81 111 42 354 102 456 114 14 2 27 9 29 17 4 12 -9 13 -74 7 -95 -9 -294 -48 -384 -76 -36 -11 -70 -20 -76 -20 -8 0 -11 87 -10 298 1 248 -2 308 -16 363 -24 95 -53 167 -93 233 l-35 58 61 101 c84 141 185 350 203 421 26 99 -13 124 -105 66 -50 -33 -230 -214 -314 -318 -27 -33 -55 -61 -61 -61 -6 -1 -37 10 -70 23 -168 69 -474 76 -693 16 -19 -5 -36 -8 -37 -7 -1 1 43 65 98 142 209 295 241 372 133 314z m8 -41 c-5 -7 -86 -111 -178 -231 -92 -121 -173 -220 -179 -222 -6 -2 -54 -20 -106 -39 -52 -19 -96 -34 -97 -32 -5 5 205 245 282 322 104 103 327 265 278 202z m1007 -102 c0 -30 -124 -275 -206 -408 -61 -98 -61 -98 -90 -65 -16 17 -46 46 -67 64 -20 18 -37 35 -37 39 0 20 281 319 344 365 48 35 56 36 56 5z m-638 -335 c42 -11 95 -29 117 -41 41 -20 41 -20 -32 -108 -180 -217 -460 -595 -687 -927 -180 -264 -211 -307 -217 -301 -3 3 9 27 26 54 83 130 -23 53 -121 -88 -31 -45 -9 8 59 137 77 146 87 177 67 198 -22 22 -52 -2 -129 -99 -62 -80 -125 -146 -125 -133 0 4 18 43 41 87 43 86 47 123 13 128 -16 2 -45 -22 -114 -95 -55 -59 -84 -84 -72 -63 75 128 84 151 62 165 -15 9 -96 -70 -163 -160 -108 -143 -103 -131 25 64 80 122 103 171 79 171 -12 0 -117 -129 -191 -235 -66 -95 -179 -233 -226 -275 -33 -30 1 36 174 340 188 329 302 506 579 891 l184 256 99 23 c156 35 196 39 340 35 94 -2 158 -9 212 -24z m-928 -292 c-187 -251 -351 -495 -479 -714 -197 -336 -410 -753 -537 -1050 -33 -77 -64 -143 -70 -146 -14 -9 -158 -28 -268 -35 -171 -11 -350 23 -419 82 -33 27 -67 105 -56 126 4 7 109 167 232 356 217 330 230 348 344 460 118 117 118 117 81 52 -58 -103 -72 -135 -79 -174 -14 -85 55 -39 204 139 l43 50 -36 -74 c-20 -41 -39 -91 -41 -112 -5 -36 -4 -39 18 -39 16 0 53 31 123 102 56 57 93 91 84 77 -208 -322 -364 -598 -354 -625 10 -27 25 -13 83 75 32 49 63 98 70 108 10 15 11 13 6 -14 -10 -58 13 -36 52 50 100 218 253 478 387 656 26 35 48 71 48 80 1 20 220 334 378 540 121 157 121 157 234 204 62 25 114 46 115 47 2 0 -72 -99 -163 -221z m1206 134 c30 -34 49 -65 47 -74 -3 -9 -81 -133 -174 -275 -93 -143 -214 -331 -268 -419 -90 -147 -250 -361 -305 -410 -22 -19 -22 -18 2 20 14 22 53 83 87 134 57 87 68 116 45 116 -5 0 -45 -45 -88 -99 -116 -144 -213 -206 -137 -87 17 26 31 51 31 54 0 19 -32 2 -64 -34 -71 -78 -27 -142 60 -88 36 22 36 22 15 -19 -44 -87 -22 -98 59 -30 l62 52 -46 -85 c-26 -46 -61 -113 -79 -148 -32 -64 -32 -64 -167 -128 -488 -233 -752 -347 -979 -422 -132 -44 -312 -93 -318 -87 -2 1 57 124 132 272 131 260 137 271 214 349 43 44 104 112 136 150 81 98 82 98 18 -2 -58 -92 -36 -113 39 -35 25 26 83 94 128 152 109 139 110 140 46 31 -57 -97 -64 -115 -46 -126 13 -8 115 89 201 190 34 41 65 73 67 71 2 -2 -6 -22 -17 -45 -12 -22 -30 -63 -41 -90 -17 -45 -18 -52 -4 -66 25 -24 65 6 158 117 45 53 82 95 84 93 2 -1 -32 -71 -74 -155 -55 -108 -78 -164 -79 -193 -2 -29 -23 -83 -69 -174 -72 -145 -71 -143 -53 -143 6 0 32 35 57 78 32 53 52 77 65 77 22 0 46 32 350 470 290 418 505 703 805 1065 20 24 35 15 100 -57z m-1366 -65 c-4 -6 -42 -57 -84 -112 -87 -115 -229 -315 -349 -493 -46 -68 -90 -123 -98 -123 -19 0 -60 -44 -178 -191 -91 -112 -172 -195 -182 -186 -4 5 42 99 107 217 16 30 30 61 30 68 0 40 -64 -18 -197 -178 -39 -47 -81 -94 -93 -105 -22 -20 -22 -20 -6 20 10 22 37 74 61 115 83 142 102 200 66 200 -5 0 -50 -46 -99 -103 -123 -141 -132 -145 -64 -31 32 54 75 131 96 171 32 62 53 85 153 170 260 221 511 397 753 527 95 51 94 51 84 34z m1486 -125 c60 -135 80 -281 80 -574 l0 -176 -49 -5 c-74 -7 -126 -38 -246 -147 -75 -68 -128 -108 -167 -125 -32 -13 -58 -23 -58 -21 0 14 61 134 116 226 46 78 67 124 68 148 2 69 -26 53 -166 -93 -72 -75 -132 -135 -135 -133 -2 3 21 55 52 117 43 89 54 120 50 144 -6 33 -12 24 325 548 52 80 98 144 102 142 4 -3 17 -26 28 -51z m-2711 -211 c-36 -22 -86 -53 -110 -69 -34 -24 -52 -30 -74 -25 -27 5 -17 12 100 68 149 72 179 81 84 26z m-224 -151 c-36 -32 -442 -329 -540 -394 -125 -82 -233 -142 -242 -133 -8 8 146 157 234 227 92 73 219 159 362 246 87 53 111 63 149 63 27 0 42 -4 37 -9z m-331 -110 c-234 -154 -388 -283 -480 -402 -46 -60 -87 -79 -170 -79 -34 0 -36 1 -30 28 10 41 73 127 130 179 160 143 574 369 685 373 8 0 -53 -44 -135 -99z m446 70 c22 -42 12 -115 -27 -192 -65 -131 -299 -338 -480 -425 -108 -52 -252 -86 -341 -81 -82 5 -112 23 -112 68 0 58 15 74 107 118 122 59 239 132 549 347 147 101 273 184 280 184 7 0 18 -9 24 -19z m2265 -393 c-56 -117 -63 -146 -40 -154 25 -10 49 8 171 121 60 55 105 96 102 90 -3 -5 -24 -40 -47 -78 -22 -37 -59 -109 -80 -160 -40 -92 -40 -92 -196 -165 -87 -40 -159 -72 -160 -70 -6 6 282 508 291 508 2 0 -17 -42 -41 -92z m-2067 62 c-7 -11 -17 -20 -22 -20 -5 0 -1 9 9 20 10 11 20 20 22 20 2 0 -2 -9 -9 -20z m-115 -115 c-20 -25 -39 -45 -41 -45 -6 0 15 27 47 63 39 43 36 31 -6 -18z m2805 19 c-3 -24 -13 -30 -113 -65 -110 -39 -110 -39 -70 -4 42 37 148 95 172 95 10 0 13 -9 11 -26z m-2799 -81 c-42 -69 -411 -638 -421 -648 -6 -6 -7 -5 -4 5 2 8 12 40 21 70 26 83 117 272 126 259 12 -19 26 -3 160 177 124 167 166 216 118 137z"/>
    <path d="M5042 2388 c-32 -32 18 -87 53 -58 28 23 12 70 -25 70 -9 0 -21 -5 -28 -12z"/>
    <path d="M4824 1576 c-12 -31 0 -51 31 -51 27 0 30 3 30 30 0 25 -4 30 -28 33 -17 2 -29 -2 -33 -12z"/>
  </g>
</svg>
